<svg version="1" xmlns="http://www.w3.org/2000/svg" width="586.667" height="586.667" viewBox="0 0 440.000000 440.000000"><path d="M201 .7c-3.7.4-25.7 3.9-29.9 4.8-6.3 1.2-21.6 6.1-31.1 9.7C70.8 42 19.3 103.3 4.5 176.5 1.2 192.6.6 199.7.5 219c0 19.8.8 28.7 4 44.4 6.7 33.4 19.9 62.3 40.8 90.1 20.3 26.7 47.9 49.4 78.2 64 30.8 14.9 59 21.5 93.5 22 28 .3 50.1-3.1 75-11.7 59.5-20.5 109-67.6 131.9-125.5 3.9-9.8 9.6-27.8 10.6-33.3.2-1.4.9-5 1.5-8s1.3-7.3 1.6-9.5c.3-2.2.8-4.7 1.1-5.5 1.2-3.5 1-41.9-.3-52C431 137.6 404.8 88.9 362 52.1 332 26.2 288.6 6.9 250.6 2.4c-2.8-.4-5.5-.9-6-1.1-1-.7-38.6-1.1-43.6-.6z"/></svg>